<?xml version="1.0" encoding="UTF-8"?>
<svg xmlns="http://www.w3.org/2000/svg" xmlns:xlink="http://www.w3.org/1999/xlink" width="100px" height="96px" viewBox="0 0 100 96" version="1.1">
<g id="surface1">
<path style=" stroke:none;fill-rule:nonzero;fill:rgb(100%,81.568627%,0%);fill-opacity:1;" d="M 46.160156 15.652344 C 44.550781 15.726562 42.621094 15.960938 40.988281 16.28125 C 39.875 16.496094 39.980469 16.4375 40.027344 16.816406 C 40.042969 16.992188 40.066406 17.148438 40.082031 17.171875 C 40.09375 17.191406 40.285156 17.160156 40.503906 17.109375 C 41.609375 16.851562 43.453125 16.558594 44.957031 16.402344 C 46.207031 16.269531 49.390625 16.246094 50.753906 16.347656 C 53.480469 16.5625 55.933594 17.0625 58.4375 17.898438 C 63.203125 19.492188 67.375 22.117188 70.859375 25.699219 C 73.199219 28.109375 74.902344 30.519531 76.425781 33.597656 C 77.921875 36.613281 78.859375 39.5625 79.457031 43.148438 C 79.527344 43.550781 79.566406 43.730469 79.550781 43.542969 C 79.511719 43.035156 79.246094 41.503906 79.03125 40.542969 C 78.660156 38.878906 78.011719 36.804688 77.375 35.246094 C 76.96875 34.257812 76.046875 32.367188 75.519531 31.445312 C 72.441406 26.050781 67.816406 21.699219 62.214844 18.917969 C 57.296875 16.484375 51.871094 15.378906 46.160156 15.652344 Z M 46.160156 15.652344 "/>
<path style=" stroke:none;fill-rule:nonzero;fill:rgb(100%,81.568627%,0%);fill-opacity:1;" d="M 45.355469 17.777344 L 45.050781 17.796875 L 45.050781 18.542969 L 45.433594 18.503906 C 45.636719 18.488281 46.394531 18.457031 47.109375 18.441406 C 52.875 18.300781 58.613281 19.761719 63.464844 22.613281 C 70.097656 26.511719 74.980469 32.785156 77.160156 40.210938 C 78.019531 43.152344 78.410156 45.78125 78.488281 49.140625 L 78.53125 50.894531 L 78.515625 48.878906 C 78.488281 45.828125 78.261719 43.9375 77.574219 41.132812 C 76.4375 36.492188 74.277344 32.226562 71.207031 28.574219 C 70.515625 27.753906 68.550781 25.773438 67.753906 25.105469 C 65.578125 23.261719 63.1875 21.722656 60.78125 20.621094 C 57.296875 19.011719 53.582031 18.074219 49.636719 17.792969 C 48.9375 17.746094 46.046875 17.734375 45.355469 17.777344 Z M 45.355469 17.777344 "/>
<path style=" stroke:none;fill-rule:nonzero;fill:rgb(100%,81.568627%,0%);fill-opacity:1;" d="M 69.042969 18.367188 C 68.933594 18.511719 68.859375 18.652344 68.878906 18.683594 C 68.894531 18.714844 69.09375 18.859375 69.3125 19.007812 C 71.75 20.65625 74.316406 22.984375 76.3125 25.355469 C 80.269531 30.054688 82.796875 35.816406 83.535156 41.8125 C 83.871094 44.507812 83.847656 47.335938 83.484375 49.976562 C 82.691406 55.6875 80.140625 61.460938 76.421875 65.949219 C 76.207031 66.203125 76.050781 66.410156 76.066406 66.410156 C 76.113281 66.410156 77.152344 65.128906 77.699219 64.394531 C 81.128906 59.785156 83.316406 54.273438 83.925781 48.722656 C 84.140625 46.777344 84.167969 44.175781 83.984375 42.335938 C 83.082031 33.125 78.425781 24.984375 70.738281 19.164062 C 70.109375 18.6875 69.296875 18.105469 69.261719 18.105469 C 69.25 18.105469 69.152344 18.222656 69.042969 18.367188 Z M 69.042969 18.367188 "/>
<path style=" stroke:none;fill-rule:nonzero;fill:rgb(100%,81.568627%,0%);fill-opacity:1;" d="M 72.1875 23.167969 L 71.917969 23.417969 L 72.277344 23.742188 C 72.714844 24.136719 74.082031 25.613281 74.738281 26.402344 C 78.441406 30.855469 80.816406 36.15625 81.636719 41.761719 C 81.863281 43.320312 81.894531 43.890625 81.902344 46.054688 C 81.902344 48.277344 81.859375 48.921875 81.609375 50.605469 C 81.105469 53.960938 79.957031 57.414062 78.375 60.367188 C 76.535156 63.777344 74.457031 66.421875 71.246094 69.421875 C 70.667969 69.964844 70.890625 69.78125 71.746094 69.015625 C 72.964844 67.921875 74.4375 66.359375 75.5 65.023438 C 78.984375 60.660156 81.25 55.5 82.027344 50.136719 C 82.394531 47.609375 82.441406 44.691406 82.15625 42.179688 C 81.5 36.390625 79.207031 30.921875 75.464844 26.21875 C 74.738281 25.304688 73.746094 24.1875 73.003906 23.457031 L 72.464844 22.910156 Z M 72.1875 23.167969 "/>
<path style=" stroke:none;fill-rule:nonzero;fill:rgb(100%,81.568627%,0%);fill-opacity:1;" d="M 23.796875 29.867188 C 23.730469 29.949219 23.734375 29.957031 23.816406 29.886719 C 23.863281 29.851562 23.90625 29.808594 23.90625 29.796875 C 23.90625 29.757812 23.863281 29.78125 23.796875 29.867188 Z M 23.796875 29.867188 "/>
<path style=" stroke:none;fill-rule:nonzero;fill:rgb(100%,81.568627%,0%);fill-opacity:1;" d="M 23.0625 30.730469 C 18.984375 35.65625 16.421875 41.574219 15.730469 47.691406 C 15.140625 52.847656 15.9375 58.285156 17.980469 63.082031 C 19.980469 67.789062 23.207031 72.019531 27.308594 75.328125 C 28.078125 75.945312 29.410156 76.929688 29.480469 76.929688 C 29.53125 76.929688 29.96875 76.410156 29.941406 76.386719 C 29.933594 76.375 29.722656 76.234375 29.480469 76.0625 C 24.925781 72.90625 21.394531 68.867188 19.03125 64.109375 C 17.355469 60.726562 16.390625 57.308594 15.980469 53.25 C 15.875 52.210938 15.890625 48.828125 16.003906 47.753906 C 16.433594 43.796875 17.425781 40.378906 19.191406 36.84375 C 20.269531 34.671875 21.824219 32.277344 23.292969 30.519531 C 23.488281 30.285156 23.640625 30.089844 23.625 30.089844 C 23.609375 30.089844 23.355469 30.378906 23.0625 30.730469 Z M 23.0625 30.730469 "/>
<path style=" stroke:none;fill-rule:nonzero;fill:rgb(100%,81.568627%,0%);fill-opacity:1;" d="M 18.75 34.855469 C 18.71875 34.910156 18.707031 34.957031 18.71875 34.957031 C 18.734375 34.957031 18.769531 34.910156 18.800781 34.855469 C 18.832031 34.796875 18.84375 34.75 18.832031 34.75 C 18.816406 34.75 18.78125 34.796875 18.75 34.855469 Z M 18.75 34.855469 "/>
<path style=" stroke:none;fill-rule:nonzero;fill:rgb(100%,81.568627%,0%);fill-opacity:1;" d="M 18.371094 35.492188 C 15.800781 39.882812 14.347656 44.46875 13.894531 49.558594 C 13.796875 50.691406 13.8125 53.550781 13.925781 54.6875 C 14.109375 56.554688 14.390625 58.195312 14.785156 59.738281 C 16.953125 68.097656 22.214844 75.03125 29.890625 79.644531 C 30.6875 80.128906 32.371094 81.046875 32.71875 81.191406 L 32.90625 81.273438 L 33.066406 80.984375 C 33.15625 80.828125 33.230469 80.6875 33.230469 80.671875 C 33.230469 80.65625 32.875 80.46875 32.441406 80.246094 C 23.113281 75.558594 16.824219 67.640625 14.769531 58.027344 C 13.34375 51.332031 14.160156 44.4375 17.136719 37.988281 C 17.480469 37.242188 18.394531 35.492188 18.628906 35.132812 C 18.675781 35.0625 18.699219 35.011719 18.683594 35.011719 C 18.667969 35.011719 18.527344 35.230469 18.371094 35.492188 Z M 18.371094 35.492188 "/>
<path style=" stroke:none;fill-rule:nonzero;fill:rgb(100%,81.568627%,0%);fill-opacity:1;" d="M 79.59375 44.117188 C 79.59375 44.214844 79.605469 44.257812 79.621094 44.207031 C 79.628906 44.160156 79.628906 44.074219 79.621094 44.023438 C 79.605469 43.976562 79.59375 44.015625 79.59375 44.117188 Z M 79.59375 44.117188 "/>
<path style=" stroke:none;fill-rule:nonzero;fill:rgb(100%,81.568627%,0%);fill-opacity:1;" d="M 79.644531 44.5625 C 79.644531 44.644531 79.65625 44.675781 79.671875 44.625 C 79.683594 44.578125 79.683594 44.503906 79.671875 44.46875 C 79.65625 44.4375 79.644531 44.472656 79.644531 44.5625 Z M 79.644531 44.5625 "/>
<path style=" stroke:none;fill-rule:nonzero;fill:rgb(100%,81.568627%,0%);fill-opacity:1;" d="M 18.078125 51.632812 C 18.078125 51.691406 18.09375 51.707031 18.109375 51.664062 C 18.125 51.625 18.121094 51.578125 18.105469 51.5625 C 18.089844 51.542969 18.074219 51.574219 18.078125 51.632812 Z M 18.078125 51.632812 "/>
<path style=" stroke:none;fill-rule:nonzero;fill:rgb(100%,81.568627%,0%);fill-opacity:1;" d="M 18.136719 52.046875 C 18.136719 52.128906 18.144531 52.160156 18.160156 52.109375 C 18.171875 52.0625 18.171875 51.988281 18.160156 51.949219 C 18.144531 51.917969 18.136719 51.957031 18.136719 52.046875 Z M 18.136719 52.046875 "/>
<path style=" stroke:none;fill-rule:nonzero;fill:rgb(100%,81.568627%,0%);fill-opacity:1;" d="M 18.1875 52.410156 C 18.1875 52.496094 18.199219 52.527344 18.214844 52.472656 C 18.222656 52.425781 18.222656 52.355469 18.214844 52.316406 C 18.199219 52.285156 18.1875 52.324219 18.1875 52.410156 Z M 18.1875 52.410156 "/>
<path style=" stroke:none;fill-rule:nonzero;fill:rgb(100%,81.568627%,0%);fill-opacity:1;" d="M 18.234375 52.671875 C 18.222656 52.855469 18.480469 54.25 18.703125 55.257812 C 19.59375 59.273438 21.230469 63.097656 23.472656 66.410156 C 24.609375 68.082031 25.574219 69.242188 27.078125 70.757812 C 29.003906 72.691406 30.734375 74.050781 33.074219 75.464844 C 34.015625 76.035156 36.28125 77.15625 37.34375 77.574219 C 42.703125 79.699219 48.488281 80.277344 54.324219 79.28125 C 55.136719 79.144531 56.550781 78.839844 56.59375 78.796875 C 56.605469 78.789062 56.582031 78.625 56.550781 78.433594 C 56.511719 78.175781 56.472656 78.082031 56.425781 78.101562 C 56.390625 78.117188 55.988281 78.210938 55.535156 78.3125 C 51.421875 79.234375 47.265625 79.359375 43.261719 78.683594 C 35.171875 77.3125 27.90625 72.617188 23.347656 65.804688 C 20.921875 62.171875 19.238281 57.992188 18.417969 53.535156 C 18.316406 53.003906 18.234375 52.617188 18.234375 52.671875 Z M 18.234375 52.671875 "/>
<path style=" stroke:none;fill-rule:nonzero;fill:rgb(100%,81.568627%,0%);fill-opacity:1;" d="M 18.183594 57.933594 C 18.183594 57.976562 18.203125 58.058594 18.230469 58.117188 C 18.253906 58.183594 18.277344 58.1875 18.277344 58.140625 C 18.277344 58.101562 18.253906 58.015625 18.230469 57.960938 C 18.203125 57.890625 18.183594 57.886719 18.183594 57.933594 Z M 18.183594 57.933594 "/>
<path style=" stroke:none;fill-rule:nonzero;fill:rgb(100%,81.568627%,0%);fill-opacity:1;" d="M 18.285156 58.285156 C 18.28125 58.382812 18.886719 60.1875 19.1875 60.953125 C 22.972656 70.691406 30.949219 77.84375 40.808594 80.347656 C 43.75 81.09375 46.125 81.363281 49.269531 81.308594 C 52.003906 81.261719 54.160156 80.980469 56.796875 80.332031 C 58.410156 79.933594 60.503906 79.257812 61.730469 78.746094 L 61.921875 78.660156 L 61.8125 78.332031 C 61.753906 78.148438 61.699219 77.996094 61.6875 77.988281 C 61.683594 77.976562 61.609375 78.003906 61.527344 78.042969 C 61.253906 78.1875 59.300781 78.902344 58.515625 79.148438 C 55.089844 80.230469 51.761719 80.746094 48.253906 80.75 C 43.386719 80.75 38.796875 79.671875 34.425781 77.503906 C 28.425781 74.515625 23.65625 69.78125 20.546875 63.726562 C 19.753906 62.1875 19.25 61 18.640625 59.242188 C 18.449219 58.679688 18.285156 58.246094 18.285156 58.285156 Z M 18.285156 58.285156 "/>
<path style=" stroke:none;fill-rule:nonzero;fill:rgb(100%,81.568627%,0%);fill-opacity:1;" d="M 75.855469 66.628906 L 75.753906 66.75 L 75.875 66.652344 C 75.984375 66.558594 76.015625 66.515625 75.972656 66.515625 C 75.964844 66.515625 75.910156 66.566406 75.855469 66.628906 Z M 75.855469 66.628906 "/>
<path style=" stroke:none;fill-rule:nonzero;fill:rgb(100%,81.568627%,0%);fill-opacity:1;" d="M 70.566406 70.007812 L 70.441406 70.152344 L 70.589844 70.027344 C 70.667969 69.953125 70.730469 69.890625 70.730469 69.878906 C 70.730469 69.839844 70.6875 69.875 70.566406 70.007812 Z M 70.566406 70.007812 "/>
<path style=" stroke:none;fill-rule:nonzero;fill:rgb(100%,81.568627%,0%);fill-opacity:1;" d="M 70.253906 70.269531 C 70.1875 70.351562 70.191406 70.355469 70.277344 70.289062 C 70.359375 70.21875 70.386719 70.179688 70.34375 70.179688 C 70.332031 70.179688 70.292969 70.21875 70.253906 70.269531 Z M 70.253906 70.269531 "/>
</g>
</svg>
