<?xml version="1.0" encoding="UTF-8"?>
<svg xmlns="http://www.w3.org/2000/svg" xmlns:xlink="http://www.w3.org/1999/xlink" width="100px" height="100px" viewBox="0 0 100 100" version="1.1">
<g id="surface1">
<path style=" stroke:none;fill-rule:nonzero;fill:rgb(100%,81.568627%,0%);fill-opacity:1;" d="M 66.457031 7.113281 C 65.71875 7.3125 65.207031 7.671875 64.964844 8.167969 C 64.765625 8.566406 64.753906 9.222656 64.9375 9.75 C 65.152344 10.359375 65.175781 10.386719 66.300781 10.964844 C 72.984375 14.402344 78.953125 19.316406 82.996094 24.714844 C 84.871094 27.21875 86.621094 30.308594 87.578125 32.8125 C 88.332031 34.777344 88.375 34.910156 88.878906 36.902344 C 89.355469 38.777344 89.375 38.890625 89.636719 40.78125 C 89.957031 43.171875 90.019531 44.214844 90.019531 47.238281 C 90.019531 51.011719 89.765625 53.667969 89.160156 56.300781 C 88.113281 60.84375 86.597656 64.21875 83.515625 68.828125 C 82.441406 70.433594 81.828125 71.261719 80.628906 72.691406 C 80.019531 73.421875 77.515625 75.871094 76.421875 76.808594 C 75.871094 77.28125 75.417969 77.675781 75.417969 77.6875 C 75.417969 77.722656 77.214844 76.28125 77.65625 75.886719 C 79.40625 74.34375 80.015625 73.769531 80.953125 72.800781 C 83.105469 70.566406 85.390625 67.515625 87.019531 64.6875 C 88.105469 62.800781 89.046875 60.734375 89.765625 58.644531 C 90.09375 57.683594 90.683594 55.5625 90.832031 54.765625 C 91.191406 52.910156 91.359375 51.78125 91.484375 50.363281 C 91.53125 49.863281 91.605469 49.078125 91.65625 48.621094 C 91.730469 47.9375 91.746094 47.265625 91.746094 44.949219 C 91.746094 42.402344 91.734375 41.984375 91.628906 40.910156 C 91.5625 40.25 91.5 39.546875 91.484375 39.347656 C 91.4375 38.828125 91.324219 38.125 91.113281 37.109375 C 91.015625 36.621094 90.863281 35.875 90.777344 35.449219 C 90.578125 34.449219 90.472656 34.089844 89.875 32.316406 C 88.582031 28.472656 86.6875 24.925781 84.058594 21.433594 C 81.878906 18.53125 78.925781 15.484375 75.886719 12.988281 C 73.378906 10.9375 70.28125 8.8125 67.675781 7.378906 C 67.003906 7.003906 66.925781 6.988281 66.457031 7.113281 Z M 66.457031 7.113281 "/>
<path style=" stroke:none;fill-rule:nonzero;fill:rgb(100%,81.568627%,0%);fill-opacity:1;" d="M 53.144531 8.984375 C 52.769531 9.171875 52.324219 9.546875 52.136719 9.828125 C 51.675781 10.527344 51.75 11.296875 52.355469 12.105469 C 52.5 12.296875 52.667969 12.488281 52.730469 12.527344 C 52.792969 12.566406 53.125 12.652344 53.46875 12.707031 C 59.089844 13.671875 64.625 15.621094 69.277344 18.269531 C 70.550781 18.996094 72.777344 20.453125 73.488281 21.027344 C 73.734375 21.21875 74.144531 21.542969 74.402344 21.746094 C 76.171875 23.121094 78.996094 26.089844 80.175781 27.8125 C 81.3125 29.472656 81.746094 30.140625 82.203125 30.941406 C 84.832031 35.535156 86.394531 39.972656 86.894531 44.246094 C 87.066406 45.71875 87.109375 46.519531 87.105469 48.621094 C 87.105469 53.125 86.628906 56.65625 85.550781 60.140625 C 84.808594 62.542969 84.199219 63.90625 82.457031 67.082031 C 82 67.917969 80.996094 69.4375 80.3125 70.316406 C 79.839844 70.925781 78.8125 72.066406 77.683594 73.230469 C 77.035156 73.890625 76.957031 73.988281 77.316406 73.660156 C 78.359375 72.722656 80.488281 70.5 81.03125 69.792969 C 81.324219 69.40625 81.765625 68.828125 82.003906 68.515625 C 82.246094 68.199219 82.734375 67.464844 83.089844 66.875 C 83.441406 66.285156 83.933594 65.480469 84.175781 65.078125 C 86.308594 61.578125 87.871094 56.222656 88.332031 50.832031 C 88.550781 48.25 88.574219 45.300781 88.386719 43.363281 C 87.832031 37.796875 85.484375 31.550781 81.894531 26.121094 C 81.339844 25.277344 79.769531 23.261719 79.144531 22.578125 C 75.839844 18.984375 72.230469 16.230469 67.675781 13.839844 C 63.589844 11.6875 58.847656 9.96875 54.285156 8.980469 C 53.558594 8.824219 53.46875 8.824219 53.144531 8.984375 Z M 53.144531 8.984375 "/>
<path style=" stroke:none;fill-rule:nonzero;fill:rgb(100%,81.568627%,0%);fill-opacity:1;" d="M 44.296875 12.921875 C 42.277344 12.980469 40.285156 13.171875 40.035156 13.328125 C 39.816406 13.46875 39.449219 13.9375 39.253906 14.324219 C 39.109375 14.621094 39.089844 14.707031 39.089844 15.105469 C 39.089844 15.511719 39.105469 15.574219 39.265625 15.875 C 39.480469 16.269531 39.875 16.640625 40.324219 16.875 L 40.65625 17.046875 L 41.589844 16.910156 C 43.621094 16.613281 44.832031 16.515625 47.003906 16.472656 C 54.8125 16.332031 62.09375 18.207031 68.21875 21.9375 C 71 23.628906 73.363281 25.5 75.78125 27.917969 C 77.855469 29.984375 78.941406 31.375 80.21875 33.59375 C 81.457031 35.753906 83.09375 39.480469 83.925781 42.058594 C 84.765625 44.65625 85.222656 47.25 85.296875 49.816406 C 85.332031 51.28125 85.253906 52.566406 85.03125 54.121094 C 84.847656 55.371094 84.808594 55.582031 84.40625 57.5 C 83.34375 62.589844 82.480469 64.753906 79.984375 68.605469 C 79.628906 69.152344 79.828125 68.917969 80.378906 68.140625 C 82.484375 65.167969 83.75 62.40625 84.839844 58.4375 C 85.792969 54.953125 86.121094 53.113281 86.261719 50.484375 C 86.328125 49.160156 86.269531 47.4375 86.121094 46.121094 C 86.003906 45.113281 85.597656 42.964844 85.394531 42.261719 C 85.296875 41.917969 85.109375 41.265625 84.972656 40.808594 C 84.5625 39.386719 83.628906 36.816406 82.910156 35.128906 C 81.71875 32.328125 80.28125 29.917969 78.574219 27.863281 C 77.066406 26.050781 73.996094 23.050781 72.386719 21.816406 C 70.183594 20.125 68.519531 19.027344 66.355469 17.839844 C 65.546875 17.390625 63.515625 16.449219 62.386719 15.996094 C 58.902344 14.59375 54.542969 13.527344 50.753906 13.152344 C 49.292969 13.011719 46.347656 12.84375 45.753906 12.875 C 45.671875 12.878906 45.015625 12.902344 44.296875 12.921875 Z M 44.296875 12.921875 "/>
<path style=" stroke:none;fill-rule:nonzero;fill:rgb(100%,81.568627%,0%);fill-opacity:1;" d="M 24.707031 22.199219 L 24.609375 22.316406 L 24.730469 22.21875 C 24.839844 22.125 24.871094 22.082031 24.828125 22.082031 C 24.816406 22.082031 24.765625 22.136719 24.707031 22.199219 Z M 24.707031 22.199219 "/>
<path style=" stroke:none;fill-rule:nonzero;fill:rgb(100%,81.568627%,0%);fill-opacity:1;" d="M 23.609375 23.0625 C 22.640625 23.847656 22.527344 23.949219 21.011719 25.296875 C 17.605469 28.324219 14.199219 32.792969 12.0625 37.03125 C 10.972656 39.183594 10.234375 41.121094 9.605469 43.464844 C 9.261719 44.746094 9.183594 45.105469 8.910156 46.640625 C 8.714844 47.761719 8.613281 48.488281 8.515625 49.636719 C 8.46875 50.136719 8.394531 50.921875 8.34375 51.378906 C 8.269531 52.0625 8.253906 52.734375 8.253906 55.050781 C 8.253906 57.597656 8.265625 58.015625 8.371094 59.089844 C 8.4375 59.746094 8.5 60.449219 8.515625 60.652344 C 8.5625 61.171875 8.675781 61.875 8.886719 62.890625 C 8.984375 63.375 9.136719 64.125 9.222656 64.550781 C 9.421875 65.550781 9.527344 65.910156 10.125 67.683594 C 11.011719 70.316406 12.347656 73.15625 13.800781 75.46875 C 14.707031 76.917969 16.125 78.878906 17.207031 80.175781 C 19.136719 82.496094 21.699219 85.03125 24.113281 87.011719 C 26.628906 89.074219 29.71875 91.183594 32.339844 92.628906 L 32.984375 92.988281 L 33.300781 92.933594 C 34.847656 92.660156 35.527344 91.609375 35.050781 90.222656 C 34.847656 89.640625 34.8125 89.609375 33.699219 89.035156 C 27.011719 85.59375 21.074219 80.707031 17.011719 75.285156 C 15.140625 72.796875 13.386719 69.699219 12.421875 67.1875 C 11.667969 65.222656 11.625 65.089844 11.121094 63.097656 C 10.644531 61.222656 10.625 61.109375 10.363281 59.21875 C 10.042969 56.828125 9.980469 55.785156 9.980469 52.761719 C 9.980469 48.402344 10.316406 45.488281 11.203125 42.21875 C 12.230469 38.433594 13.722656 35.308594 16.484375 31.171875 C 17.558594 29.566406 18.171875 28.738281 19.371094 27.308594 C 19.980469 26.578125 22.484375 24.128906 23.582031 23.191406 C 24.441406 22.453125 24.640625 22.277344 24.574219 22.296875 C 24.5625 22.296875 24.128906 22.640625 23.609375 23.0625 Z M 23.609375 23.0625 "/>
<path style=" stroke:none;fill-rule:nonzero;fill:rgb(100%,81.568627%,0%);fill-opacity:1;" d="M 21.28125 27.71875 C 19.878906 29.125 19.386719 29.65625 18.96875 30.207031 C 18.675781 30.59375 18.25 31.15625 18.019531 31.453125 C 17.792969 31.75 17.5 32.160156 17.375 32.363281 C 15.324219 35.714844 15.03125 36.246094 14.375 37.785156 C 12.984375 41.042969 12.015625 45.136719 11.667969 49.167969 C 11.449219 51.75 11.425781 54.699219 11.613281 56.636719 C 12.171875 62.253906 14.5625 68.5625 18.214844 74.046875 C 18.792969 74.917969 20.464844 77.015625 21.175781 77.765625 C 22.277344 78.921875 23.214844 79.832031 24.0625 80.566406 C 28.261719 84.203125 33.425781 87.136719 39.269531 89.183594 C 41.441406 89.941406 44.746094 90.871094 46.113281 91.097656 C 46.59375 91.183594 46.785156 91.121094 47.3125 90.714844 C 48.3125 89.953125 48.4375 88.953125 47.65625 87.90625 C 47.511719 87.71875 47.339844 87.527344 47.265625 87.480469 C 47.191406 87.425781 46.917969 87.355469 46.652344 87.3125 C 45.660156 87.152344 43.792969 86.753906 42.621094 86.453125 C 38.238281 85.332031 34.3125 83.777344 30.722656 81.730469 C 29.449219 81.003906 27.222656 79.546875 26.511719 78.972656 C 26.265625 78.78125 25.855469 78.457031 25.597656 78.253906 C 23.828125 76.878906 21.003906 73.910156 19.824219 72.1875 C 18.167969 69.761719 17.675781 68.953125 16.613281 66.847656 C 14.589844 62.828125 13.4375 59.089844 13.046875 55.234375 C 12.703125 51.808594 12.859375 47.589844 13.46875 43.984375 C 13.722656 42.464844 13.988281 41.347656 14.449219 39.859375 C 15.191406 37.457031 15.800781 36.09375 17.542969 32.917969 C 18 32.082031 19.003906 30.5625 19.6875 29.683594 C 20.183594 29.042969 21.238281 27.875 22.3125 26.78125 C 22.769531 26.316406 23.125 25.9375 23.105469 25.9375 C 23.078125 25.9375 22.261719 26.738281 21.28125 27.71875 Z M 21.28125 27.71875 "/>
<path style=" stroke:none;fill-rule:nonzero;fill:rgb(100%,81.568627%,0%);fill-opacity:1;" d="M 19.621094 31.859375 C 17.511719 34.84375 16.253906 37.582031 15.152344 41.589844 C 14.21875 44.996094 13.875 46.917969 13.738281 49.515625 C 13.671875 50.839844 13.730469 52.5625 13.878906 53.878906 C 14.011719 55 14.410156 57.078125 14.667969 57.953125 C 14.796875 58.40625 14.972656 59.019531 15.0625 59.324219 C 15.390625 60.488281 16.40625 63.277344 17.089844 64.871094 C 18.28125 67.671875 19.71875 70.082031 21.425781 72.136719 C 22.933594 73.949219 26.003906 76.949219 27.613281 78.183594 C 29.378906 79.542969 30.546875 80.347656 31.984375 81.203125 C 33.515625 82.113281 34.09375 82.421875 35.46875 83.0625 C 38.128906 84.300781 40.375 85.082031 43.515625 85.859375 C 47.21875 86.777344 51.394531 87.203125 55.5 87.078125 C 57.769531 87.015625 59.699219 86.839844 59.964844 86.671875 C 60.183594 86.53125 60.550781 86.0625 60.746094 85.675781 C 60.890625 85.378906 60.910156 85.292969 60.910156 84.894531 C 60.910156 84.488281 60.894531 84.425781 60.734375 84.125 C 60.519531 83.730469 60.125 83.359375 59.675781 83.125 L 59.34375 82.953125 L 58.410156 83.089844 C 56.378906 83.386719 55.167969 83.484375 52.996094 83.527344 C 49.316406 83.59375 46.0625 83.253906 42.578125 82.441406 C 35.609375 80.824219 29.53125 77.390625 24.21875 72.082031 C 22.425781 70.296875 21.511719 69.1875 20.457031 67.515625 C 19.386719 65.828125 18.644531 64.363281 17.527344 61.738281 C 15.910156 57.964844 15.140625 55.183594 14.792969 51.847656 C 14.699219 50.964844 14.667969 48.953125 14.734375 47.980469 C 14.855469 46.253906 15.308594 43.613281 16.015625 40.578125 C 16.5 38.484375 17.082031 36.785156 17.933594 34.988281 C 18.386719 34.035156 19.050781 32.886719 20.015625 31.390625 C 20.371094 30.847656 20.171875 31.082031 19.621094 31.859375 Z M 19.621094 31.859375 "/>
<path style=" stroke:none;fill-rule:nonzero;fill:rgb(100%,81.568627%,0%);fill-opacity:1;" d="M 75.230469 77.824219 L 75.128906 77.941406 L 75.25 77.84375 C 75.359375 77.75 75.390625 77.707031 75.347656 77.707031 C 75.339844 77.707031 75.285156 77.761719 75.230469 77.824219 Z M 75.230469 77.824219 "/>
</g>
</svg>
